<mxfile host="app.diagrams.net" modified="2023-01-01T14:21:55.172Z" agent="5.0 (Windows NT 10.0; Win64; x64) AppleWebKit/537.36 (KHTML, like Gecko) Chrome/108.0.0.0 Safari/537.36 Edg/108.0.1462.54" etag="F6HXjsawGFGWxsDFEDQ6" version="20.7.4" type="github">
  <diagram id="C5RBs43oDa-KdzZeNtuy" name="Page-1">
    <mxGraphModel dx="470" dy="773" grid="1" gridSize="10" guides="1" tooltips="1" connect="1" arrows="1" fold="1" page="1" pageScale="1" pageWidth="827" pageHeight="1169" math="0" shadow="0">
      <root>
        <mxCell id="WIyWlLk6GJQsqaUBKTNV-0" />
        <mxCell id="WIyWlLk6GJQsqaUBKTNV-1" parent="WIyWlLk6GJQsqaUBKTNV-0" />
        <mxCell id="fXNVzqpggvSZvr1kFPVJ-4" style="edgeStyle=orthogonalEdgeStyle;rounded=0;orthogonalLoop=1;jettySize=auto;html=1;exitX=0.5;exitY=1;exitDx=0;exitDy=0;entryX=0.5;entryY=0;entryDx=0;entryDy=0;" edge="1" parent="WIyWlLk6GJQsqaUBKTNV-1" source="fXNVzqpggvSZvr1kFPVJ-0">
          <mxGeometry relative="1" as="geometry">
            <mxPoint x="269.5" y="230" as="targetPoint" />
          </mxGeometry>
        </mxCell>
        <mxCell id="fXNVzqpggvSZvr1kFPVJ-0" value="Bắt đầu" style="ellipse;whiteSpace=wrap;html=1;" vertex="1" parent="WIyWlLk6GJQsqaUBKTNV-1">
          <mxGeometry x="240" y="140" width="59" height="58" as="geometry" />
        </mxCell>
        <mxCell id="fXNVzqpggvSZvr1kFPVJ-1" value="End" style="ellipse;whiteSpace=wrap;html=1;" vertex="1" parent="WIyWlLk6GJQsqaUBKTNV-1">
          <mxGeometry x="240" y="620" width="59" height="58" as="geometry" />
        </mxCell>
        <mxCell id="fXNVzqpggvSZvr1kFPVJ-8" style="edgeStyle=orthogonalEdgeStyle;rounded=0;orthogonalLoop=1;jettySize=auto;html=1;exitX=0.5;exitY=1;exitDx=0;exitDy=0;entryX=0.5;entryY=0;entryDx=0;entryDy=0;" edge="1" parent="WIyWlLk6GJQsqaUBKTNV-1" source="fXNVzqpggvSZvr1kFPVJ-6" target="fXNVzqpggvSZvr1kFPVJ-7">
          <mxGeometry relative="1" as="geometry" />
        </mxCell>
        <mxCell id="fXNVzqpggvSZvr1kFPVJ-10" value="" style="edgeStyle=orthogonalEdgeStyle;rounded=0;orthogonalLoop=1;jettySize=auto;html=1;" edge="1" parent="WIyWlLk6GJQsqaUBKTNV-1" source="fXNVzqpggvSZvr1kFPVJ-6" target="fXNVzqpggvSZvr1kFPVJ-9">
          <mxGeometry relative="1" as="geometry" />
        </mxCell>
        <mxCell id="fXNVzqpggvSZvr1kFPVJ-6" value="Ứng dụng đã &lt;br&gt;được&amp;nbsp;đăng nhập trước&lt;br&gt;&amp;nbsp;đó?" style="rhombus;whiteSpace=wrap;html=1;" vertex="1" parent="WIyWlLk6GJQsqaUBKTNV-1">
          <mxGeometry x="186.88" y="230" width="165.25" height="90" as="geometry" />
        </mxCell>
        <mxCell id="fXNVzqpggvSZvr1kFPVJ-7" value="Giao diện chính" style="rounded=0;whiteSpace=wrap;html=1;" vertex="1" parent="WIyWlLk6GJQsqaUBKTNV-1">
          <mxGeometry x="214.75" y="360" width="109.5" height="60" as="geometry" />
        </mxCell>
        <mxCell id="fXNVzqpggvSZvr1kFPVJ-11" style="edgeStyle=orthogonalEdgeStyle;rounded=0;orthogonalLoop=1;jettySize=auto;html=1;entryX=1;entryY=0.5;entryDx=0;entryDy=0;" edge="1" parent="WIyWlLk6GJQsqaUBKTNV-1" source="fXNVzqpggvSZvr1kFPVJ-9" target="fXNVzqpggvSZvr1kFPVJ-7">
          <mxGeometry relative="1" as="geometry">
            <mxPoint x="440" y="430" as="targetPoint" />
            <Array as="points">
              <mxPoint x="460" y="390" />
            </Array>
          </mxGeometry>
        </mxCell>
        <mxCell id="fXNVzqpggvSZvr1kFPVJ-9" value="Giao diện&lt;br&gt;&amp;nbsp;đăng nhập" style="whiteSpace=wrap;html=1;" vertex="1" parent="WIyWlLk6GJQsqaUBKTNV-1">
          <mxGeometry x="420" y="245" width="85.25" height="60" as="geometry" />
        </mxCell>
        <mxCell id="fXNVzqpggvSZvr1kFPVJ-12" value="&lt;b&gt;Y&lt;/b&gt;" style="text;html=1;strokeColor=none;fillColor=none;align=center;verticalAlign=middle;whiteSpace=wrap;rounded=0;" vertex="1" parent="WIyWlLk6GJQsqaUBKTNV-1">
          <mxGeometry x="260" y="330" width="60" height="30" as="geometry" />
        </mxCell>
        <mxCell id="fXNVzqpggvSZvr1kFPVJ-13" value="&lt;b&gt;N&lt;/b&gt;" style="text;html=1;strokeColor=none;fillColor=none;align=center;verticalAlign=middle;whiteSpace=wrap;rounded=0;" vertex="1" parent="WIyWlLk6GJQsqaUBKTNV-1">
          <mxGeometry x="360" y="245" width="60" height="30" as="geometry" />
        </mxCell>
        <mxCell id="fXNVzqpggvSZvr1kFPVJ-15" style="edgeStyle=orthogonalEdgeStyle;rounded=0;orthogonalLoop=1;jettySize=auto;html=1;entryX=0.5;entryY=0;entryDx=0;entryDy=0;" edge="1" parent="WIyWlLk6GJQsqaUBKTNV-1" source="fXNVzqpggvSZvr1kFPVJ-14" target="fXNVzqpggvSZvr1kFPVJ-1">
          <mxGeometry relative="1" as="geometry" />
        </mxCell>
        <mxCell id="fXNVzqpggvSZvr1kFPVJ-14" value="Đăng xuất" style="rhombus;whiteSpace=wrap;html=1;" vertex="1" parent="WIyWlLk6GJQsqaUBKTNV-1">
          <mxGeometry x="216.88" y="522" width="105.25" height="63" as="geometry" />
        </mxCell>
      </root>
    </mxGraphModel>
  </diagram>
</mxfile>
